<svg width="64" height="64" viewBox="0 0 64 64" fill="none" xmlns="http://www.w3.org/2000/svg">
  <rect width="64" height="64" rx="12" fill="#1890FF" />
  <path d="M32 14C27.5817 14 24 17.5817 24 22C24 26.4183 27.5817 30 32 30C36.4183 30 40 26.4183 40 22C40 17.5817 36.4183 14 32 14ZM32 26C29.7909 26 28 24.2091 28 22C28 19.7909 29.7909 18 32 18C34.2091 18 36 19.7909 36 22C36 24.2091 34.2091 26 32 26Z" fill="white"/>
  <path d="M18 32C15.7909 32 14 33.7909 14 36C14 38.2091 15.7909 40 18 40C20.2091 40 22 38.2091 22 36C22 33.7909 20.2091 32 18 32Z" fill="white"/>
  <path d="M46 32C43.7909 32 42 33.7909 42 36C42 38.2091 43.7909 40 46 40C48.2091 40 50 38.2091 50 36C50 33.7909 48.2091 32 46 32Z" fill="white"/>
  <path d="M32 34C29.7909 34 28 35.7909 28 38C28 40.2091 29.7909 42 32 42C34.2091 42 36 40.2091 36 38C36 35.7909 34.2091 34 32 34Z" fill="white"/>
  <path d="M24 44C21.7909 44 20 45.7909 20 48C20 50.2091 21.7909 52 24 52C26.2091 52 28 50.2091 28 48C28 45.7909 26.2091 44 24 44Z" fill="white"/>
  <path d="M40 44C37.7909 44 36 45.7909 36 48C36 50.2091 37.7909 52 40 52C42.2091 52 44 50.2091 44 48C44 45.7909 42.2091 44 40 44Z" fill="white"/>
</svg> 